<svg xmlns="http://www.w3.org/2000/svg" viewBox="0 0 512 512" role="img" aria-labelledby="title desc">
  <title id="title">Raksha24x7 icon</title>
  <desc id="desc">A premium shield icon with the Raksha24x7 initial.</desc>
  <defs>
    <linearGradient id="bg" x1="76" x2="436" y1="48" y2="464" gradientUnits="userSpaceOnUse">
      <stop stop-color="#FF7A45"/>
      <stop offset="0.52" stop-color="#FF5A3D"/>
      <stop offset="1" stop-color="#E11D48"/>
    </linearGradient>
    <linearGradient id="shield" x1="156" x2="356" y1="112" y2="400" gradientUnits="userSpaceOnUse">
      <stop stop-color="#FFFFFF"/>
      <stop offset="1" stop-color="#FFE4DE"/>
    </linearGradient>
    <filter id="soft" x="-20%" y="-20%" width="140%" height="140%" color-interpolation-filters="sRGB">
      <feDropShadow dx="0" dy="22" stdDeviation="20" flood-color="#7F1D1D" flood-opacity="0.35"/>
    </filter>
  </defs>
  <rect width="512" height="512" rx="118" fill="#0F172A"/>
  <circle cx="256" cy="256" r="198" fill="url(#bg)" opacity="0.94"/>
  <path fill="url(#shield)" filter="url(#soft)" d="M256 88c46 38 94 56 148 62v116c0 78-50 134-148 166-98-32-148-88-148-166V150c54-6 102-24 148-62Z"/>
  <path fill="#FF5A3D" d="M204 178h67c48 0 80 28 80 71 0 30-15 53-41 64l50 67h-58l-42-59h-7v59h-49V178Zm49 43v59h15c20 0 34-11 34-30s-14-29-34-29h-15Z"/>
  <path fill="#0F172A" opacity=".88" d="M166 385h180v28H166z"/>
  <text x="352" y="407" fill="#0F172A" font-family="Inter, Arial, sans-serif" font-size="38" font-weight="900">24</text>
</svg>
